<svg fill="none" viewBox="0 0 243 213" xmlns="http://www.w3.org/2000/svg" xmlns:xlink="http://www.w3.org/1999/xlink"><clipPath id="a"><path d="m0 0h242.021v212.572h-242.021z"/></clipPath><g clip-path="url(#a)" stroke="#010101" stroke-linecap="round" stroke-linejoin="round" stroke-width="1.5"><path d="m.75 46.787c7.84-1.106 14.51-7.926 15.441-15.789-.665 6.771 3.533 13.736 9.83 16.312-3.224.182-6.079 2.405-7.731 5.179-1.653 2.774-2.269 6.041-2.572 9.257-.173-7.97-7.293-15.157-14.968-14.959z"/><path d="m218.229 113.794c7.149-1.009 13.23-7.227 14.079-14.397-.606 6.174 3.221 12.525 8.963 14.873-2.94.166-5.543 2.193-7.05 4.722-1.507 2.53-2.069 5.509-2.345 8.44-.158-7.267-6.649-13.819-13.647-13.638z"/><path d="m170.496 133.01c1.131 1.453 1.898 3.187 2.212 5.002-25.046 11.019-50.092 22.038-75.139 33.056-20.675-37.352-39.765-74.213-57.564-111.687 8.951-6.136 17.995-10.914 27.132-14.773 10.523 35.899 22.905 71.254 38.168 106.301 21.575-7.755 43.346-14.963 65.191-17.899z" fill="#7b5ff1"/><path d="m197.045 123.462c-14.245-36.646-28.543-85.308-40.66-122.712-32.654 8.946-62.669 19.756-91.979 32.222 11.577 39.274 21.293 80.234 38.646 119.204 29.46-7.213 64.181-17.052 93.992-28.714z" fill="#e3e3ff"/><path d="m87.417 47.911c.726 2.504 1.453 5.009 2.179 7.513 20.692-3.542 40.549-10.761 60.275-17.944-.682-2.56-1.364-5.12-2.046-7.68-19.588 6.177-39.177 12.354-60.409 18.112z" fill="#fff"/><path d="m95.123 69.129c19.2-5.448 38.294-11.269 57.267-17.458"/><path d="m100.085 80.064c19.182-6.065 38.363-12.13 57.545-18.195"/><path d="m105.2 92.021c18.857-6.366 37.767-12.577 56.726-18.632"/><path d="m109.416 103.399c19.595-5.019 39.033-10.649 58.277-16.879"/><path d="m114.758 115.611c5.097-2.152 10.278-4.105 15.527-5.853"/><path d="m142.83 123.128c-.535-3.943-.454-8.213 1.698-11.56s6.944-5.218 10.296-3.075c1.938 1.239 2.982 3.452 3.928 5.549 1.302-.905 1.781-2.564 2.379-4.032s1.656-3.028 3.238-3.129c1.165-.074 2.202.679 3.319 1.017 2.097.635 4.324-.22 6.347-1.061"/><path d="m42.9189 175.411c9.067-3.56 18.479-6.24 28.06-7.991"/><path d="m83.945 180.129c-3.365 6.176-6.881 12.27-10.544 18.275"/><path d="m102.852 189.165c.457 7.542.621 15.102.491 22.656"/></g></svg>