<svg viewBox="0 0 391 92" fill="currentColor" xmlns="http://www.w3.org/2000/svg">
<path d="M13.7623 34.4719L40.0333 34.4719C47.5837 34.4719 53.7046 40.5928 53.7046 48.1432C53.7046 55.6937 47.5837 61.8145 40.0333 61.8145H26.5201H11.7625C5.26627 61.8145 0 67.0808 0 73.5771C0 82.5682 7.28872 89.8569 16.2798 89.8569H40.2374C53.7046 89.8569 80.4748 94.3884 80.4748 48.4021C80.4748 11.7473 54.573 6.94738 40.2374 6.94727H13.7623C6.16161 6.94727 0 13.1089 0 20.7096C0 28.3103 6.1616 34.4719 13.7623 34.4719Z" fill="currentColor"/>
<path d="M271.055 9.69322C271.055 15.0466 266.715 19.3864 261.362 19.3864C256.008 19.3864 251.668 15.0466 251.668 9.69322C251.668 4.3398 256.008 -7.7445e-08 261.362 -7.7445e-08C266.715 -7.7445e-08 271.055 4.3398 271.055 9.69322Z" fill="currentColor"/>
<path d="M294.078 9.69322C294.078 15.0466 289.738 19.3864 284.384 19.3864C279.03 19.3864 274.69 15.0466 274.69 9.69322C274.69 4.3398 279.03 4.52345e-08 284.384 4.52345e-08C289.738 4.52345e-08 294.078 4.3398 294.078 9.69322Z" fill="currentColor"/>
<path d="M369.456 9.50923C369.456 14.3576 365.525 18.288 360.677 18.288C355.828 18.288 351.897 14.3576 351.897 9.50923C351.897 4.66085 355.828 0.730469 360.677 0.730469C365.525 0.730469 369.456 4.66085 369.456 9.50923Z" fill="currentColor"/>
<path d="M390.305 9.50923C390.305 14.3576 386.375 18.288 381.526 18.288C376.678 18.288 372.747 14.3576 372.747 9.50923C372.747 4.66085 376.678 0.730469 381.526 0.730469C386.375 0.730469 390.305 4.66085 390.305 9.50923Z" fill="currentColor"/>
<path d="M197.74 72.9688L205.144 12.5001C206.018 5.36346 212.079 0 219.268 0C227.699 0 234.28 7.28771 233.425 15.6742L227.24 76.2798C226.467 83.8549 220.088 89.6165 212.473 89.6165C203.56 89.6165 196.656 81.8161 197.74 72.9688Z" fill="currentColor"/>
<path d="M280.017 44.8088V74.5272C280.017 82.8755 273.276 89.6571 264.928 89.7074C256.508 89.7581 249.656 82.9469 249.656 74.5272V44.8088C249.656 36.4248 256.452 29.6283 264.836 29.6283C273.22 29.6283 280.017 36.4249 280.017 44.8088Z" fill="currentColor"/>
<path d="M143.575 16.0018V30.1753H158.939C167.424 30.1753 174.302 37.0535 174.302 45.5382C174.302 53.4168 167.915 59.8037 160.036 59.8037H143.575V76.1719C143.575 84.4043 136.901 91.078 128.669 91.078C120.436 91.078 113.763 84.4043 113.763 76.1719V46.4526V16.0018C113.763 7.7694 120.436 1.0957 128.669 1.0957C136.901 1.0957 143.575 7.7694 143.575 16.0018Z" fill="currentColor"/>
<path d="M343.3 14.9061V29.0796H358.663C367.148 29.0796 374.026 35.9578 374.026 44.4425C374.026 52.3211 367.639 58.708 359.761 58.708H343.3V75.0762C343.3 83.3086 336.626 89.9823 328.393 89.9823C320.161 89.9823 313.487 83.3086 313.487 75.0762V45.3569V14.9061C313.487 6.6737 320.161 0 328.393 0C336.626 0 343.3 6.67369 343.3 14.9061Z" fill="currentColor"/>
</svg>
