<svg viewBox="0 0 290 310" fill="none" xmlns="http://www.w3.org/2000/svg">
<path d="M152.004 240.379C156.201 241.76 158.529 246.316 156.634 250.307C146.853 270.904 127.446 282.661 110.56 277.103C93.6752 271.544 85.0478 250.558 89.4149 228.179C90.2612 223.843 94.8409 221.561 99.0377 222.943L152.004 240.379Z" fill="#5A86FF"/>
<path d="M190.324 38.0411C188.639 36.547 186.403 35.8322 184.164 36.0721L129.929 41.8824C126.384 42.2621 123.519 44.9413 122.902 48.4524L96.3091 199.78C95.6212 203.694 97.9115 207.52 101.687 208.763L156.699 226.872C160.474 228.115 164.589 226.398 166.361 222.84L234.817 85.4074C236.43 82.1705 235.67 78.2546 232.964 75.8553L190.324 38.0411Z" fill="#5A86FF"/>
<path d="M179.639 217.274L236.599 123.984C237.243 122.93 238.197 122.1 239.33 121.608L256.885 113.983C260.75 112.304 265.095 115.027 265.271 119.237L267.161 164.706C267.244 166.702 266.328 168.609 264.718 169.792L188.94 225.443C187.377 226.592 185.355 226.913 183.513 226.307L182.884 226.1C179.211 224.891 177.624 220.574 179.639 217.274Z" fill="#F1BAFF"/>
<path d="M88.9433 187.42L98.5412 78.5396C98.6497 77.3089 98.3756 76.0747 97.7563 75.0056L88.1634 58.4437C86.0517 54.798 80.9385 54.4071 78.297 57.6894L49.7646 93.1441C48.5121 94.7006 48.1164 96.7784 48.7092 98.6862L76.6078 188.467C77.1834 190.319 78.6189 191.779 80.4613 192.386L81.0902 192.593C84.763 193.802 88.6038 191.272 88.9433 187.42Z" fill="#F1BAFF"/>
</svg>
